<svg xmlns="http://www.w3.org/2000/svg" xmlns:xlink="http://www.w3.org/1999/xlink" width="823" height="1097" viewBox="0 0 823 1097">
  <defs>
    <clipPath id="clip-画板_2">
      <rect width="823" height="1097"/>
    </clipPath>
  </defs>
  <g id="画板_2" data-name="画板 – 2" clip-path="url(#clip-画板_2)">
    <path id="路径_817" data-name="路径 817" d="M3.84,4.358h96.318l28.648,25.524,67.307-.332V4.382h9.656l.18,95.448h48.879l13.248,19.236-62.127,16.09.1,139.935h-13.8v25.555h-62.2l-28.371-25.2-97.631-.127-.1-136.774,64.6-17.155L51.18,95.808H3.941Z" transform="translate(0.16 -0.358)" fill="#111"/>
    <path id="路径_809" data-name="路径 809" d="M3.84,4.358h96.318l28.648,25.524,67.307-.332V4.382h9.656l.18,95.448h48.879l13.248,19.236-62.127,16.09.1,139.935h-13.8v25.555h-62.2l-28.371-25.2-97.631-.127-.1-136.774,64.6-17.155L51.18,95.808H3.941Z" transform="translate(0.305 275.042)" fill="#111"/>
    <path id="路径_810" data-name="路径 810" d="M3.84,4.358h96.318l28.648,25.524,67.307-.332V4.382h9.656l.18,95.448h48.879l13.248,19.236-62.127,16.09.1,139.935h-13.8v25.555h-62.2l-28.371-25.2-97.631-.127-.1-136.774,64.6-17.155L51.18,95.808H3.941Z" transform="translate(205.836 0.027)" fill="#111"/>
    <path id="路径_812" data-name="路径 812" d="M3.84,4.358h96.318l28.648,25.524,67.307-.332V4.382h9.656l.18,95.448h48.879l13.248,19.236-62.127,16.09.1,139.935h-13.8v25.555h-62.2l-28.371-25.2-97.631-.127-.1-136.774,64.6-17.155L51.18,95.808H3.941Z" transform="translate(619.336 0.642)" fill="#111"/>
    <path id="路径_813" data-name="路径 813" d="M3.84,4.358h96.318l28.648,25.524,67.307-.332V4.382h9.656l.18,95.448h48.879l13.248,19.236-62.127,16.09.1,139.935h-13.8v25.555h-62.2l-28.371-25.2-97.631-.127-.1-136.774,64.6-17.155L51.18,95.808H3.941Z" transform="translate(413.66 0.257)" fill="#111"/>
    <path id="路径_814" data-name="路径 814" d="M3.84,4.358h96.318l28.648,25.524,67.307-.332V4.382h9.656l.18,95.448h48.879l13.248,19.236-62.127,16.09.1,139.935h-13.8v25.555h-62.2l-28.371-25.2-97.631-.127-.1-136.774,64.6-17.155L51.18,95.808H3.941Z" transform="translate(205.836 275.042)" fill="#111"/>
    <path id="路径_815" data-name="路径 815" d="M3.84,4.358h96.318l28.648,25.524,67.307-.332V4.382h9.656l.18,95.448h48.879l13.248,19.236-62.127,16.09.1,139.935h-13.8v25.555h-62.2l-28.371-25.2-97.631-.127-.1-136.774,64.6-17.155L51.18,95.808H3.941Z" transform="translate(619.381 274.642)" fill="#111"/>
    <path id="路径_816" data-name="路径 816" d="M3.84,4.358h96.318l28.648,25.524,67.307-.332V4.382h9.656l.18,95.448h48.879l13.248,19.236-62.127,16.09.1,139.935h-13.8v25.555h-62.2l-28.371-25.2-97.631-.127-.1-136.774,64.6-17.155L51.18,95.808H3.941Z" transform="translate(413.705 274.257)" fill="#111"/>
    <path id="路径_818" data-name="路径 818" d="M3.84,4.358h96.318l28.648,25.524,67.307-.332V4.382h9.656l.18,95.448h48.879l13.248,19.236-62.127,16.09.1,139.935h-13.8v25.555h-62.2l-28.371-25.2-97.631-.127-.1-136.774,64.6-17.155L51.18,95.808H3.941Z" transform="translate(0.16 548.642)" fill="#111"/>
    <path id="路径_819" data-name="路径 819" d="M3.84,4.358h96.318l28.648,25.524,67.307-.332V4.382h9.656l.18,95.448h48.879l13.248,19.236-62.127,16.09.1,139.935h-13.8v25.555h-62.2l-28.371-25.2-97.631-.127-.1-136.774,64.6-17.155L51.18,95.808H3.941Z" transform="translate(0.305 824.042)" fill="#111"/>
    <path id="路径_820" data-name="路径 820" d="M3.84,4.358h96.318l28.648,25.524,67.307-.332V4.382h9.656l.18,95.448h48.879l13.248,19.236-62.127,16.09.1,139.935h-13.8v25.555h-62.2l-28.371-25.2-97.631-.127-.1-136.774,64.6-17.155L51.18,95.808H3.941Z" transform="translate(205.836 549.027)" fill="#111"/>
    <path id="路径_821" data-name="路径 821" d="M3.84,4.358h96.318l28.648,25.524,67.307-.332V4.382h9.656l.18,95.448h48.879l13.248,19.236-62.127,16.09.1,139.935h-13.8v25.555h-62.2l-28.371-25.2-97.631-.127-.1-136.774,64.6-17.155L51.18,95.808H3.941Z" transform="translate(619.336 549.642)" fill="#111"/>
    <path id="路径_822" data-name="路径 822" d="M3.84,4.358h96.318l28.648,25.524,67.307-.332V4.382h9.656l.18,95.448h48.879l13.248,19.236-62.127,16.09.1,139.935h-13.8v25.555h-62.2l-28.371-25.2-97.631-.127-.1-136.774,64.6-17.155L51.18,95.808H3.941Z" transform="translate(413.66 549.257)" fill="#111"/>
    <path id="路径_823" data-name="路径 823" d="M3.84,4.358h96.318l28.648,25.524,67.307-.332V4.382h9.656l.18,95.448h48.879l13.248,19.236-62.127,16.09.1,139.935h-13.8v25.555h-62.2l-28.371-25.2-97.631-.127-.1-136.774,64.6-17.155L51.18,95.808H3.941Z" transform="translate(205.836 824.042)" fill="#111"/>
    <path id="路径_824" data-name="路径 824" d="M3.84,4.358h96.318l28.648,25.524,67.307-.332V4.382h9.656l.18,95.448h48.879l13.248,19.236-62.127,16.09.1,139.935h-13.8v25.555h-62.2l-28.371-25.2-97.631-.127-.1-136.774,64.6-17.155L51.18,95.808H3.941Z" transform="translate(619.381 823.642)" fill="#111"/>
    <path id="路径_825" data-name="路径 825" d="M3.84,4.358h96.318l28.648,25.524,67.307-.332V4.382h9.656l.18,95.448h48.879l13.248,19.236-62.127,16.09.1,139.935h-13.8v25.555h-62.2l-28.371-25.2-97.631-.127-.1-136.774,64.6-17.155L51.18,95.808H3.941Z" transform="translate(413.705 823.257)" fill="#111"/>
    <path id="路径_826" data-name="路径 826" d="M3.84,4.358h96.318l28.648,25.524,67.307-.332V4.382h9.656l.18,95.448h48.879l13.248,19.236-62.127,16.09.1,139.935h-13.8v25.555h-62.2l-28.371-25.2-97.631-.127-.1-136.774,64.6-17.155L51.18,95.808H3.941Z" transform="translate(-204.84 -0.358)" fill="#111"/>
    <path id="路径_827" data-name="路径 827" d="M3.84,4.358h96.318l28.648,25.524,67.307-.332V4.382h9.656l.18,95.448h48.879l13.248,19.236-62.127,16.09.1,139.935h-13.8v25.555h-62.2l-28.371-25.2-97.631-.127-.1-136.774,64.6-17.155L51.18,95.808H3.941Z" transform="translate(-204.695 275.042)" fill="#111"/>
    <path id="路径_828" data-name="路径 828" d="M3.84,4.358h96.318l28.648,25.524,67.307-.332V4.382h9.656l.18,95.448h48.879l13.248,19.236-62.127,16.09.1,139.935h-13.8v25.555h-62.2l-28.371-25.2-97.631-.127-.1-136.774,64.6-17.155L51.18,95.808H3.941Z" transform="translate(-204.84 548.642)" fill="#111"/>
    <path id="路径_829" data-name="路径 829" d="M3.84,4.358h96.318l28.648,25.524,67.307-.332V4.382h9.656l.18,95.448h48.879l13.248,19.236-62.127,16.09.1,139.935h-13.8v25.555h-62.2l-28.371-25.2-97.631-.127-.1-136.774,64.6-17.155L51.18,95.808H3.941Z" transform="translate(-204.695 824.042)" fill="#111"/>
    <path id="路径_830" data-name="路径 830" d="M3.84,4.358h96.318l28.648,25.524,67.307-.332V4.382h9.656l.18,95.448h48.879l13.248,19.236-62.127,16.09.1,139.935h-13.8v25.555h-62.2l-28.371-25.2-97.631-.127-.1-136.774,64.6-17.155L51.18,95.808H3.941Z" transform="translate(0.16 -276.358)" fill="#111"/>
    <path id="路径_831" data-name="路径 831" d="M3.84,4.358h96.318l28.648,25.524,67.307-.332V4.382h9.656l.18,95.448h48.879l13.248,19.236-62.127,16.09.1,139.935h-13.8v25.555h-62.2l-28.371-25.2-97.631-.127-.1-136.774,64.6-17.155L51.18,95.808H3.941Z" transform="translate(205.836 -275.973)" fill="#111"/>
    <path id="路径_832" data-name="路径 832" d="M3.84,4.358h96.318l28.648,25.524,67.307-.332V4.382h9.656l.18,95.448h48.879l13.248,19.236-62.127,16.09.1,139.935h-13.8v25.555h-62.2l-28.371-25.2-97.631-.127-.1-136.774,64.6-17.155L51.18,95.808H3.941Z" transform="translate(619.336 -275.358)" fill="#111"/>
    <path id="路径_833" data-name="路径 833" d="M3.84,4.358h96.318l28.648,25.524,67.307-.332V4.382h9.656l.18,95.448h48.879l13.248,19.236-62.127,16.09.1,139.935h-13.8v25.555h-62.2l-28.371-25.2-97.631-.127-.1-136.774,64.6-17.155L51.18,95.808H3.941Z" transform="translate(413.66 -275.743)" fill="#111"/>
  </g>
</svg>
